<svg id='menu-title' width="382" height="72" viewBox="0 0 382 72" fill="none" xmlns="http://www.w3.org/2000/svg">
<g filter="url(#filter0_dii_121_493)">
<path d="M54.5498 10.4043L52.3037 46.2441L41.1709 46.7324L41.2686 27.8359L36.2393 43.0703H31.9424L28.085 29.4473L28.0361 45.2676L16.7568 45.6094L17.2451 11.8691L29.7939 11.3809L34.7744 27.543L41.415 10.4043H54.5498ZM83.3584 26.2734C83.3584 27.6895 83.2607 29.1055 83.0654 30.5215C80.2822 30.7005 77.5153 30.9935 74.7646 31.4004C72.014 31.791 69.2633 32.1816 66.5127 32.5723C66.9359 33.7441 67.5951 34.68 68.4902 35.3799C69.4017 36.0798 70.484 36.4297 71.7373 36.4297C72.3883 36.4297 73.0964 36.3076 73.8613 36.0635C74.6426 35.8193 75.4157 35.5182 76.1807 35.1602C76.9456 34.7858 77.6781 34.387 78.3779 33.9639C79.0778 33.5407 79.68 33.1582 80.1846 32.8164L79.0127 43.9004C78.3779 44.3887 77.6862 44.8037 76.9375 45.1455C76.2051 45.4873 75.4401 45.764 74.6426 45.9756C73.8451 46.1872 73.0394 46.3418 72.2256 46.4395C71.4118 46.5371 70.6143 46.5859 69.833 46.5859C68.2217 46.5859 66.7487 46.3662 65.4141 45.9268C64.0794 45.4873 62.8669 44.877 61.7764 44.0957C60.7021 43.2982 59.7581 42.3623 58.9443 41.2881C58.1305 40.2139 57.4551 39.042 56.918 37.7725C56.3809 36.5029 55.974 35.1602 55.6973 33.7441C55.4206 32.3281 55.2822 30.8958 55.2822 29.4473C55.2822 27.9336 55.4206 26.4199 55.6973 24.9062C55.974 23.3926 56.389 21.9359 56.9424 20.5361C57.512 19.1364 58.2201 17.8424 59.0664 16.6543C59.929 15.4499 60.93 14.4001 62.0693 13.5049C63.2087 12.6097 64.4945 11.9098 65.9268 11.4053C67.3753 10.9007 68.9704 10.6484 70.7119 10.6484C72.1605 10.6484 73.4788 10.8519 74.667 11.2588C75.8714 11.6494 76.9375 12.2028 77.8652 12.9189C78.8092 13.6188 79.623 14.457 80.3066 15.4336C81.0065 16.4102 81.5762 17.4844 82.0156 18.6562C82.4714 19.8118 82.805 21.0407 83.0166 22.3428C83.2445 23.6286 83.3584 24.9388 83.3584 26.2734ZM73.5928 25.0039C73.5928 24.5482 73.5439 24.0843 73.4463 23.6123C73.3486 23.124 73.1859 22.6846 72.958 22.2939C72.7464 21.9033 72.4616 21.5859 72.1035 21.3418C71.7454 21.0814 71.2979 20.9512 70.7607 20.9512C70.1097 20.9512 69.5319 21.1302 69.0273 21.4883C68.5391 21.8301 68.1159 22.2695 67.7578 22.8066C67.3997 23.3275 67.1068 23.8971 66.8789 24.5156C66.651 25.1341 66.4801 25.7038 66.3662 26.2246L73.5928 25.541V25.0039ZM127.304 29.4473C127.304 31.7747 127.23 34.0941 127.084 36.4053C126.938 38.7165 126.767 41.0358 126.571 43.3633L114.022 43.9492C114.397 41.1172 114.73 38.2852 115.023 35.4531C115.333 32.6048 115.487 29.7565 115.487 26.9082C115.487 26.7292 115.479 26.4199 115.463 25.9805C115.447 25.5247 115.414 25.012 115.365 24.4424C115.333 23.8727 115.276 23.2868 115.194 22.6846C115.129 22.0661 115.032 21.5046 114.901 21C114.787 20.4792 114.641 20.056 114.462 19.7305C114.283 19.4049 114.071 19.2422 113.827 19.2422C113.257 19.2422 112.81 19.4619 112.484 19.9014C112.159 20.3245 111.915 20.8372 111.752 21.4395C111.605 22.0417 111.516 22.6602 111.483 23.2949C111.451 23.9134 111.435 24.418 111.435 24.8086C111.435 25.4922 111.451 26.1758 111.483 26.8594C111.516 27.543 111.532 28.2428 111.532 28.959C111.532 31.4818 111.467 33.9964 111.337 36.5029C111.223 39.0094 111.076 41.5241 110.897 44.0469L99.3252 44.4863C99.6995 41.6543 100.025 38.8304 100.302 36.0146C100.595 33.1826 100.741 30.3424 100.741 27.4941C100.741 27.3151 100.733 26.9896 100.717 26.5176C100.701 26.0456 100.668 25.5166 100.619 24.9307C100.587 24.3447 100.53 23.7344 100.448 23.0996C100.367 22.4648 100.261 21.887 100.131 21.3662C100.017 20.8291 99.8704 20.3896 99.6914 20.0479C99.5124 19.7061 99.2926 19.5352 99.0322 19.5352C98.6253 19.5352 98.2835 19.6979 98.0068 20.0234C97.7301 20.3327 97.5023 20.7396 97.3232 21.2441C97.1605 21.7487 97.0303 22.3102 96.9326 22.9287C96.8512 23.5309 96.7861 24.125 96.7373 24.7109C96.7048 25.2969 96.6803 25.8421 96.6641 26.3467C96.6641 26.835 96.6559 27.2012 96.6396 27.4453L96.1025 45.2676H83.7979C84.0583 42.5169 84.3187 39.7581 84.5791 36.9912C84.8558 34.2243 85.0918 31.4655 85.2871 28.7148C85.4987 25.9479 85.6696 23.181 85.7998 20.4141C85.93 17.6471 85.9951 14.8802 85.9951 12.1133L97.6162 11.625L97.5674 14.457C97.9255 14.0013 98.3324 13.5456 98.7881 13.0898C99.2438 12.6178 99.724 12.2028 100.229 11.8447C100.749 11.4704 101.295 11.1693 101.864 10.9414C102.45 10.7135 103.052 10.5996 103.671 10.5996C104.468 10.5996 105.185 10.6647 105.819 10.7949C106.454 10.9089 107.024 11.1123 107.528 11.4053C108.049 11.6982 108.505 12.1051 108.896 12.626C109.286 13.1305 109.628 13.7734 109.921 14.5547C110.442 13.985 110.963 13.4561 111.483 12.9678C112.021 12.4795 112.582 12.0645 113.168 11.7227C113.754 11.3646 114.389 11.0879 115.072 10.8926C115.756 10.6973 116.513 10.5996 117.343 10.5996C118.922 10.5996 120.264 10.9089 121.371 11.5273C122.478 12.1296 123.397 12.9352 124.13 13.9443C124.879 14.9535 125.456 16.109 125.863 17.4111C126.286 18.7132 126.604 20.0641 126.815 21.4639C127.027 22.8636 127.157 24.2552 127.206 25.6387C127.271 27.0221 127.304 28.2917 127.304 29.4473ZM159.726 27.2988C159.726 28.7799 159.555 30.2122 159.213 31.5957C158.871 32.9629 158.375 34.2487 157.724 35.4531C157.089 36.6576 156.308 37.7643 155.38 38.7734C154.468 39.7663 153.435 40.6208 152.279 41.3369C151.14 42.0531 149.895 42.6146 148.544 43.0215C147.193 43.4121 145.761 43.6074 144.247 43.6074C142.782 43.6074 141.382 43.4202 140.048 43.0459C138.729 42.6715 137.493 42.1507 136.337 41.4834C135.181 40.7998 134.132 39.986 133.188 39.042C132.26 38.0817 131.462 37.0238 130.795 35.8682C130.144 34.6963 129.631 33.443 129.257 32.1084C128.899 30.7738 128.72 29.3822 128.72 27.9336C128.72 26.5176 128.891 25.1341 129.232 23.7832C129.574 22.416 130.062 21.1302 130.697 19.9258C131.348 18.7214 132.13 17.6146 133.041 16.6055C133.952 15.5964 134.97 14.7256 136.093 13.9932C137.232 13.2607 138.461 12.6911 139.779 12.2842C141.098 11.8773 142.489 11.6738 143.954 11.6738C146.314 11.6738 148.463 12.04 150.399 12.7725C152.353 13.5049 154.013 14.5547 155.38 15.9219C156.763 17.2728 157.829 18.9167 158.578 20.8535C159.343 22.7741 159.726 24.9225 159.726 27.2988ZM148.886 27.9336C148.886 27.2337 148.78 26.5583 148.568 25.9072C148.373 25.2399 148.08 24.654 147.689 24.1494C147.299 23.6286 146.811 23.2135 146.225 22.9043C145.655 22.5788 144.996 22.416 144.247 22.416C143.482 22.416 142.799 22.5544 142.196 22.8311C141.594 23.1077 141.073 23.4902 140.634 23.9785C140.211 24.4505 139.885 25.012 139.657 25.6631C139.429 26.2979 139.315 26.9733 139.315 27.6895C139.315 28.373 139.413 29.0566 139.608 29.7402C139.804 30.4238 140.097 31.0423 140.487 31.5957C140.878 32.1491 141.358 32.5967 141.928 32.9385C142.514 33.2803 143.189 33.4512 143.954 33.4512C144.719 33.4512 145.403 33.3047 146.005 33.0117C146.623 32.7025 147.144 32.2956 147.567 31.791C147.991 31.2702 148.316 30.6761 148.544 30.0088C148.772 29.3415 148.886 28.6497 148.886 27.9336ZM190.048 22.4648C190.048 23.7344 189.934 24.89 189.706 25.9316C189.494 26.957 189.153 27.901 188.681 28.7637C188.209 29.6263 187.598 30.4238 186.85 31.1562C186.101 31.8887 185.198 32.5885 184.14 33.2559L189.95 43.6074L178.964 45.7559L175.204 35.3555L172.177 35.4531L171.737 45.6094H161.239C161.321 41.8984 161.394 38.2038 161.459 34.5254C161.54 30.847 161.63 27.1523 161.728 23.4414C161.76 21.5697 161.793 19.7142 161.825 17.875C161.858 16.0358 161.923 14.1803 162.021 12.3086C163.16 11.8854 164.283 11.5355 165.39 11.2588C166.496 10.9821 167.603 10.7705 168.71 10.624C169.833 10.4613 170.964 10.3555 172.104 10.3066C173.259 10.2415 174.439 10.209 175.644 10.209C177.499 10.209 179.289 10.4694 181.015 10.9902C182.756 11.4948 184.294 12.2598 185.629 13.2852C186.964 14.3105 188.03 15.5882 188.827 17.1182C189.641 18.6481 190.048 20.4303 190.048 22.4648ZM179.11 23.2461C179.11 22.5625 179.013 21.9359 178.817 21.3662C178.638 20.7965 178.362 20.3083 177.987 19.9014C177.629 19.4782 177.174 19.1527 176.62 18.9248C176.083 18.6807 175.448 18.5586 174.716 18.5586C174.39 18.5586 174.073 18.583 173.764 18.6318C173.454 18.6644 173.153 18.7214 172.86 18.8027L172.47 27.8848H173.056C173.756 27.8848 174.464 27.7952 175.18 27.6162C175.912 27.4372 176.563 27.1605 177.133 26.7861C177.719 26.4118 178.191 25.9316 178.549 25.3457C178.923 24.7598 179.11 24.0599 179.11 23.2461ZM221.322 12.9434L209.848 31.6934L210.189 45.5117H197.641L197.934 31.791L188.998 13.6758L201.449 12.1133L205.355 22.6602L209.604 12.1133L221.322 12.9434ZM260.727 41.0195C259.962 41.9798 259.018 42.818 257.895 43.5342C256.771 44.2503 255.567 44.8444 254.281 45.3164C252.995 45.7884 251.677 46.1383 250.326 46.3662C248.975 46.6104 247.689 46.7324 246.469 46.7324C244.109 46.7324 241.936 46.3092 239.95 45.4629C237.965 44.6165 236.247 43.4528 234.799 41.9717C233.367 40.4743 232.243 38.7165 231.43 36.6982C230.616 34.68 230.209 32.5072 230.209 30.1797C230.209 28.4056 230.412 26.6722 230.819 24.9795C231.226 23.2705 231.804 21.6673 232.553 20.1699C233.318 18.6562 234.245 17.2728 235.336 16.0195C236.426 14.75 237.663 13.6595 239.047 12.748C240.43 11.8366 241.944 11.1286 243.588 10.624C245.232 10.1195 246.99 9.86719 248.861 9.86719C249.561 9.86719 250.31 9.89974 251.107 9.96484C251.905 10.0137 252.694 10.1113 253.476 10.2578C254.273 10.388 255.046 10.5752 255.795 10.8193C256.544 11.0635 257.227 11.3646 257.846 11.7227L257.162 21.0488C256.251 20.707 255.307 20.4792 254.33 20.3652C253.37 20.235 252.426 20.1699 251.498 20.1699C250.196 20.1699 248.975 20.3734 247.836 20.7803C246.713 21.1709 245.728 21.7406 244.882 22.4893C244.052 23.238 243.393 24.1494 242.904 25.2236C242.416 26.2979 242.172 27.5104 242.172 28.8613C242.172 29.7077 242.286 30.5296 242.514 31.3271C242.742 32.1084 243.083 32.8083 243.539 33.4268C244.011 34.029 244.589 34.5173 245.272 34.8916C245.972 35.266 246.778 35.4531 247.689 35.4531C248.308 35.4531 248.943 35.3717 249.594 35.209C250.261 35.0462 250.831 34.7695 251.303 34.3789L251.4 32.4746L245.541 32.377L245.834 25.0527C248.259 24.9714 250.684 24.9062 253.109 24.8574C255.535 24.7923 257.976 24.7109 260.434 24.6133L260.727 41.0195ZM293.393 43.9004L281.283 45.4629L279.818 39.9453H274.252L273.031 45.4629L260.58 44.2422L270.297 11.7227L283.871 11.0391L293.393 43.9004ZM278.939 32.4746L277.084 23.9785L275.277 32.4746H278.939ZM336.581 29.4473C336.581 31.7747 336.508 34.0941 336.361 36.4053C336.215 38.7165 336.044 41.0358 335.849 43.3633L323.3 43.9492C323.674 41.1172 324.008 38.2852 324.301 35.4531C324.61 32.6048 324.765 29.7565 324.765 26.9082C324.765 26.7292 324.757 26.4199 324.74 25.9805C324.724 25.5247 324.691 25.012 324.643 24.4424C324.61 23.8727 324.553 23.2868 324.472 22.6846C324.407 22.0661 324.309 21.5046 324.179 21C324.065 20.4792 323.918 20.056 323.739 19.7305C323.56 19.4049 323.349 19.2422 323.104 19.2422C322.535 19.2422 322.087 19.4619 321.762 19.9014C321.436 20.3245 321.192 20.8372 321.029 21.4395C320.883 22.0417 320.793 22.6602 320.761 23.2949C320.728 23.9134 320.712 24.418 320.712 24.8086C320.712 25.4922 320.728 26.1758 320.761 26.8594C320.793 27.543 320.81 28.2428 320.81 28.959C320.81 31.4818 320.744 33.9964 320.614 36.5029C320.5 39.0094 320.354 41.5241 320.175 44.0469L308.603 44.4863C308.977 41.6543 309.302 38.8304 309.579 36.0146C309.872 33.1826 310.019 30.3424 310.019 27.4941C310.019 27.3151 310.01 26.9896 309.994 26.5176C309.978 26.0456 309.945 25.5166 309.896 24.9307C309.864 24.3447 309.807 23.7344 309.726 23.0996C309.644 22.4648 309.538 21.887 309.408 21.3662C309.294 20.8291 309.148 20.3896 308.969 20.0479C308.79 19.7061 308.57 19.5352 308.31 19.5352C307.903 19.5352 307.561 19.6979 307.284 20.0234C307.007 20.3327 306.78 20.7396 306.601 21.2441C306.438 21.7487 306.308 22.3102 306.21 22.9287C306.129 23.5309 306.063 24.125 306.015 24.7109C305.982 25.2969 305.958 25.8421 305.941 26.3467C305.941 26.835 305.933 27.2012 305.917 27.4453L305.38 45.2676H293.075C293.336 42.5169 293.596 39.7581 293.856 36.9912C294.133 34.2243 294.369 31.4655 294.564 28.7148C294.776 25.9479 294.947 23.181 295.077 20.4141C295.207 17.6471 295.272 14.8802 295.272 12.1133L306.894 11.625L306.845 14.457C307.203 14.0013 307.61 13.5456 308.065 13.0898C308.521 12.6178 309.001 12.2028 309.506 11.8447C310.027 11.4704 310.572 11.1693 311.142 10.9414C311.728 10.7135 312.33 10.5996 312.948 10.5996C313.746 10.5996 314.462 10.6647 315.097 10.7949C315.731 10.9089 316.301 11.1123 316.806 11.4053C317.326 11.6982 317.782 12.1051 318.173 12.626C318.563 13.1305 318.905 13.7734 319.198 14.5547C319.719 13.985 320.24 13.4561 320.761 12.9678C321.298 12.4795 321.859 12.0645 322.445 11.7227C323.031 11.3646 323.666 11.0879 324.35 10.8926C325.033 10.6973 325.79 10.5996 326.62 10.5996C328.199 10.5996 329.542 10.9089 330.648 11.5273C331.755 12.1296 332.675 12.9352 333.407 13.9443C334.156 14.9535 334.734 16.109 335.141 17.4111C335.564 18.7132 335.881 20.0641 336.093 21.4639C336.304 22.8636 336.435 24.2552 336.483 25.6387C336.549 27.0221 336.581 28.2917 336.581 29.4473ZM366.073 26.2734C366.073 27.6895 365.976 29.1055 365.78 30.5215C362.997 30.7005 360.23 30.9935 357.479 31.4004C354.729 31.791 351.978 32.1816 349.228 32.5723C349.651 33.7441 350.31 34.68 351.205 35.3799C352.117 36.0798 353.199 36.4297 354.452 36.4297C355.103 36.4297 355.811 36.3076 356.576 36.0635C357.357 35.8193 358.131 35.5182 358.896 35.1602C359.66 34.7858 360.393 34.387 361.093 33.9639C361.793 33.5407 362.395 33.1582 362.899 32.8164L361.728 43.9004C361.093 44.3887 360.401 44.8037 359.652 45.1455C358.92 45.4873 358.155 45.764 357.357 45.9756C356.56 46.1872 355.754 46.3418 354.94 46.4395C354.127 46.5371 353.329 46.5859 352.548 46.5859C350.937 46.5859 349.464 46.3662 348.129 45.9268C346.794 45.4873 345.582 44.877 344.491 44.0957C343.417 43.2982 342.473 42.3623 341.659 41.2881C340.845 40.2139 340.17 39.042 339.633 37.7725C339.096 36.5029 338.689 35.1602 338.412 33.7441C338.135 32.3281 337.997 30.8958 337.997 29.4473C337.997 27.9336 338.135 26.4199 338.412 24.9062C338.689 23.3926 339.104 21.9359 339.657 20.5361C340.227 19.1364 340.935 17.8424 341.781 16.6543C342.644 15.4499 343.645 14.4001 344.784 13.5049C345.924 12.6097 347.209 11.9098 348.642 11.4053C350.09 10.9007 351.685 10.6484 353.427 10.6484C354.875 10.6484 356.194 10.8519 357.382 11.2588C358.586 11.6494 359.652 12.2028 360.58 12.9189C361.524 13.6188 362.338 14.457 363.021 15.4336C363.721 16.4102 364.291 17.4844 364.73 18.6562C365.186 19.8118 365.52 21.0407 365.731 22.3428C365.959 23.6286 366.073 24.9388 366.073 26.2734ZM356.308 25.0039C356.308 24.5482 356.259 24.0843 356.161 23.6123C356.063 23.124 355.901 22.6846 355.673 22.2939C355.461 21.9033 355.176 21.5859 354.818 21.3418C354.46 21.0814 354.013 20.9512 353.476 20.9512C352.825 20.9512 352.247 21.1302 351.742 21.4883C351.254 21.8301 350.831 22.2695 350.473 22.8066C350.115 23.3275 349.822 23.8971 349.594 24.5156C349.366 25.1341 349.195 25.7038 349.081 26.2246L356.308 25.541V25.0039Z" fill="url(#paint0_linear_121_493)"/>
</g>
<defs>
<filter id="filter0_dii_121_493" x="12.7568" y="9.86719" width="357.316" height="44.8652" filterUnits="userSpaceOnUse" color-interpolation-filters="sRGB">
<feFlood flood-opacity="0" result="BackgroundImageFix"/>
<feColorMatrix in="SourceAlpha" type="matrix" values="0 0 0 0 0 0 0 0 0 0 0 0 0 0 0 0 0 0 127 0" result="hardAlpha"/>
<feOffset dy="4"/>
<feGaussianBlur stdDeviation="2"/>
<feComposite in2="hardAlpha" operator="out"/>
<feColorMatrix type="matrix" values="0 0 0 0 0 0 0 0 0 0 0 0 0 0 0 0 0 0 0.25 0"/>
<feBlend mode="normal" in2="BackgroundImageFix" result="effect1_dropShadow_121_493"/>
<feBlend mode="normal" in="SourceGraphic" in2="effect1_dropShadow_121_493" result="shape"/>
<feColorMatrix in="SourceAlpha" type="matrix" values="0 0 0 0 0 0 0 0 0 0 0 0 0 0 0 0 0 0 127 0" result="hardAlpha"/>
<feOffset dx="4"/>
<feGaussianBlur stdDeviation="3"/>
<feComposite in2="hardAlpha" operator="arithmetic" k2="-1" k3="1"/>
<feColorMatrix type="matrix" values="0 0 0 0 0 0 0 0 0 0 0 0 0 0 0 0 0 0 0.25 0"/>
<feBlend mode="normal" in2="shape" result="effect2_innerShadow_121_493"/>
<feColorMatrix in="SourceAlpha" type="matrix" values="0 0 0 0 0 0 0 0 0 0 0 0 0 0 0 0 0 0 127 0" result="hardAlpha"/>
<feOffset dx="-4"/>
<feGaussianBlur stdDeviation="3"/>
<feComposite in2="hardAlpha" operator="arithmetic" k2="-1" k3="1"/>
<feColorMatrix type="matrix" values="0 0 0 0 0 0 0 0 0 0 0 0 0 0 0 0 0 0 0.25 0"/>
<feBlend mode="normal" in2="effect2_innerShadow_121_493" result="effect3_innerShadow_121_493"/>
</filter>
<linearGradient id="paint0_linear_121_493" x1="191" y1="0" x2="191" y2="72" gradientUnits="userSpaceOnUse">
<stop offset="0.28125" stop-color="#00FFCA"/>
<stop offset="0.520833" stop-color="#05BFDB"/>
</linearGradient>
</defs>
</svg>
